ISO-10303-21;
HEADER;
FILE_DESCRIPTION(('STEP AP214'),'1');
FILE_NAME('SPBW06F-15_MWU','2025-10-24T11:23:48',(''),(''),'','','');
FILE_SCHEMA(('AUTOMOTIVE_DESIGN'));
ENDSEC;
DATA;
#1=SHAPE_DEFINITION_REPRESENTATION(#2,#3);
#2=PRODUCT_DEFINITION_SHAPE('',$,#4);
#3=SHAPE_REPRESENTATION('',(#197,#252,#307,#362,#417,#472,#527,#583,#19),#11);
#4=PRODUCT_DEFINITION('design','example product_definition',#6,#5);
#5=PRODUCT_DEFINITION_CONTEXT('3D Mechanical Parts',#10,'design');
#6=PRODUCT_DEFINITION_FORMATION('1.0','first version',#8);
#7=APPLICATION_PROTOCOL_DEFINITION('international standard','automotive_design',2003,#10);
#8=PRODUCT('product','part','',(#9));
#9=PRODUCT_CONTEXT('3D Mechanical Parts',#10,'mechanical');
#10=APPLICATION_CONTEXT('Core Data for Automotive Mechanical Design Process');
#11=(GEOMETRIC_REPRESENTATION_CONTEXT(3) GLOBAL_UNCERTAINTY_ASSIGNED_CONTEXT((#12)) GLOBAL_UNIT_ASSIGNED_CONTEXT((#13,#14,#18)) REPRESENTATION_CONTEXT('ID1','3D'));
#12=UNCERTAINTY_MEASURE_WITH_UNIT(LENGTH_MEASURE(1.E-005),#13,'DISTANCE_ACCURACY_VALUE','Maximum model space distance between geometric entities at asserted connectivities');
#13=(LENGTH_UNIT() NAMED_UNIT(*) SI_UNIT(.MILLI.,.METRE.));
#14=(CONVERSION_BASED_UNIT('degree',#16) NAMED_UNIT(#15) PLANE_ANGLE_UNIT());
#15=DIMENSIONAL_EXPONENTS(0.,0.,0.,0.,0.,0.,0.);
#16=MEASURE_WITH_UNIT(PLANE_ANGLE_MEASURE(0.01745329252),#17);
#17=(NAMED_UNIT(*) PLANE_ANGLE_UNIT() SI_UNIT($,.RADIAN.));
#18=(NAMED_UNIT(*) SI_UNIT($,.STERADIAN.) SOLID_ANGLE_UNIT());
#19=AXIS2_PLACEMENT_3D('',#20,#21,#22);
#20=CARTESIAN_POINT('',(0.0,0.0,0.0));
#21=DIRECTION('',(0.0,0.0,1.0));
#22=DIRECTION('',(1.0,0.0,0.0));
#25=MECHANICAL_DESIGN_GEOMETRIC_PRESENTATION_REPRESENTATION($,(#249,#250,#251,#304,#305,#306,#359,#360,#361,#414,#415,#416,#469,#470,#471,#524,#525,#526,#579,#580,#581,#585,#634,#683,#732,#781,#830),#11);
#26=PRODUCT_CATEGORY_RELATIONSHIP('','',#27,#28);
#27=PRODUCT_CATEGORY('part','');
#28=PRODUCT_RELATED_PRODUCT_CATEGORY('','',(#8));
#34=PRESENTATION_STYLE_ASSIGNMENT((#35,#40));
#35=SURFACE_STYLE_USAGE(.BOTH.,#36);
#36=SURFACE_SIDE_STYLE('',(#37));
#37=SURFACE_STYLE_FILL_AREA(#38);
#38=FILL_AREA_STYLE('',(#39));
#39=FILL_AREA_STYLE_COLOUR('',#41);
#40=CURVE_STYLE('',#42,POSITIVE_LENGTH_MEASURE(0.1),#41);
#41=COLOUR_RGB('Aluminum',0.725,0.725,0.725);
#42=DRAUGHTING_PRE_DEFINED_CURVE_FONT('continuous');
#43=PRESENTATION_STYLE_ASSIGNMENT((#44,#49));
#44=SURFACE_STYLE_USAGE(.BOTH.,#45);
#45=SURFACE_SIDE_STYLE('',(#46));
#46=SURFACE_STYLE_FILL_AREA(#47);
#47=FILL_AREA_STYLE('',(#48));
#48=FILL_AREA_STYLE_COLOUR('',#50);
#49=CURVE_STYLE('',#51,POSITIVE_LENGTH_MEASURE(0.1),#50);
#50=COLOUR_RGB('Black',0.196,0.196,0.196);
#51=DRAUGHTING_PRE_DEFINED_CURVE_FONT('continuous');
#52=PRESENTATION_STYLE_ASSIGNMENT((#53,#58));
#53=SURFACE_STYLE_USAGE(.BOTH.,#54);
#54=SURFACE_SIDE_STYLE('',(#55));
#55=SURFACE_STYLE_FILL_AREA(#56);
#56=FILL_AREA_STYLE('',(#57));
#57=FILL_AREA_STYLE_COLOUR('',#59);
#58=CURVE_STYLE('',#60,POSITIVE_LENGTH_MEASURE(0.1),#59);
#59=COLOUR_RGB('Pin1',0.588,0.588,0.588);
#60=DRAUGHTING_PRE_DEFINED_CURVE_FONT('continuous');
#61=PRESENTATION_STYLE_ASSIGNMENT((#62,#67));
#62=SURFACE_STYLE_USAGE(.BOTH.,#63);
#63=SURFACE_SIDE_STYLE('',(#64));
#64=SURFACE_STYLE_FILL_AREA(#65);
#65=FILL_AREA_STYLE('',(#66));
#66=FILL_AREA_STYLE_COLOUR('',#68);
#67=CURVE_STYLE('',#69,POSITIVE_LENGTH_MEASURE(0.1),#68);
#68=COLOUR_RGB('HeatTab',0.588,0.588,0.588);
#69=DRAUGHTING_PRE_DEFINED_CURVE_FONT('continuous');
#70=PRESENTATION_STYLE_ASSIGNMENT((#71,#76));
#71=SURFACE_STYLE_USAGE(.BOTH.,#72);
#72=SURFACE_SIDE_STYLE('',(#73));
#73=SURFACE_STYLE_FILL_AREA(#74);
#74=FILL_AREA_STYLE('',(#75));
#75=FILL_AREA_STYLE_COLOUR('',#77);
#76=CURVE_STYLE('',#78,POSITIVE_LENGTH_MEASURE(0.1),#77);
#77=COLOUR_RGB('MountTab',0.706,0.706,0.706);
#78=DRAUGHTING_PRE_DEFINED_CURVE_FONT('continuous');
#79=PRESENTATION_STYLE_ASSIGNMENT((#80,#85));
#80=SURFACE_STYLE_USAGE(.BOTH.,#81);
#81=SURFACE_SIDE_STYLE('',(#82));
#82=SURFACE_STYLE_FILL_AREA(#83);
#83=FILL_AREA_STYLE('',(#84));
#84=FILL_AREA_STYLE_COLOUR('',#86);
#85=CURVE_STYLE('',#87,POSITIVE_LENGTH_MEASURE(0.1),#86);
#86=COLOUR_RGB('Gold',0.843,0.686,0.0);
#87=DRAUGHTING_PRE_DEFINED_CURVE_FONT('continuous');
#88=PRESENTATION_STYLE_ASSIGNMENT((#89,#94));
#89=SURFACE_STYLE_USAGE(.BOTH.,#90);
#90=SURFACE_SIDE_STYLE('',(#91));
#91=SURFACE_STYLE_FILL_AREA(#92);
#92=FILL_AREA_STYLE('',(#93));
#93=FILL_AREA_STYLE_COLOUR('',#95);
#94=CURVE_STYLE('',#96,POSITIVE_LENGTH_MEASURE(0.1),#95);
#95=COLOUR_RGB('Brown',0.459,0.345,0.176);
#96=DRAUGHTING_PRE_DEFINED_CURVE_FONT('continuous');
#97=PRESENTATION_STYLE_ASSIGNMENT((#98,#103));
#98=SURFACE_STYLE_USAGE(.BOTH.,#99);
#99=SURFACE_SIDE_STYLE('',(#100));
#100=SURFACE_STYLE_FILL_AREA(#101);
#101=FILL_AREA_STYLE('',(#102));
#102=FILL_AREA_STYLE_COLOUR('',#104);
#103=CURVE_STYLE('',#105,POSITIVE_LENGTH_MEASURE(0.1),#104);
#104=COLOUR_RGB('Tan',0.784,0.686,0.51);
#105=DRAUGHTING_PRE_DEFINED_CURVE_FONT('continuous');
#106=PRESENTATION_STYLE_ASSIGNMENT((#107,#112));
#107=SURFACE_STYLE_USAGE(.BOTH.,#108);
#108=SURFACE_SIDE_STYLE('',(#109));
#109=SURFACE_STYLE_FILL_AREA(#110);
#110=FILL_AREA_STYLE('',(#111));
#111=FILL_AREA_STYLE_COLOUR('',#113);
#112=CURVE_STYLE('',#114,POSITIVE_LENGTH_MEASURE(0.1),#113);
#113=COLOUR_RGB('Gray',0.431,0.431,0.431);
#114=DRAUGHTING_PRE_DEFINED_CURVE_FONT('continuous');
#115=PRESENTATION_STYLE_ASSIGNMENT((#116,#121));
#116=SURFACE_STYLE_USAGE(.BOTH.,#117);
#117=SURFACE_SIDE_STYLE('',(#118));
#118=SURFACE_STYLE_FILL_AREA(#119);
#119=FILL_AREA_STYLE('',(#120));
#120=FILL_AREA_STYLE_COLOUR('',#122);
#121=CURVE_STYLE('',#123,POSITIVE_LENGTH_MEASURE(0.1),#122);
#122=COLOUR_RGB('Red',0.6,0.0,0.0);
#123=DRAUGHTING_PRE_DEFINED_CURVE_FONT('continuous');
#124=PRESENTATION_STYLE_ASSIGNMENT((#125,#130));
#125=SURFACE_STYLE_USAGE(.BOTH.,#126);
#126=SURFACE_SIDE_STYLE('',(#127));
#127=SURFACE_STYLE_FILL_AREA(#128);
#128=FILL_AREA_STYLE('',(#129));
#129=FILL_AREA_STYLE_COLOUR('',#131);
#130=CURVE_STYLE('',#132,POSITIVE_LENGTH_MEASURE(0.1),#131);
#131=COLOUR_RGB('Blue',0.157,0.157,0.588);
#132=DRAUGHTING_PRE_DEFINED_CURVE_FONT('continuous');
#133=PRESENTATION_STYLE_ASSIGNMENT((#134,#139));
#134=SURFACE_STYLE_USAGE(.BOTH.,#135);
#135=SURFACE_SIDE_STYLE('',(#136));
#136=SURFACE_STYLE_FILL_AREA(#137);
#137=FILL_AREA_STYLE('',(#138));
#138=FILL_AREA_STYLE_COLOUR('',#140);
#139=CURVE_STYLE('',#141,POSITIVE_LENGTH_MEASURE(0.1),#140);
#140=COLOUR_RGB('Maroon',0.294,0.0,0.0);
#141=DRAUGHTING_PRE_DEFINED_CURVE_FONT('continuous');
#142=PRESENTATION_STYLE_ASSIGNMENT((#143,#148));
#143=SURFACE_STYLE_USAGE(.BOTH.,#144);
#144=SURFACE_SIDE_STYLE('',(#145));
#145=SURFACE_STYLE_FILL_AREA(#146);
#146=FILL_AREA_STYLE('',(#147));
#147=FILL_AREA_STYLE_COLOUR('',#149);
#148=CURVE_STYLE('',#150,POSITIVE_LENGTH_MEASURE(0.1),#149);
#149=COLOUR_RGB('Green',0.0,0.294,0.0);
#150=DRAUGHTING_PRE_DEFINED_CURVE_FONT('continuous');
#151=PRESENTATION_STYLE_ASSIGNMENT((#152,#157));
#152=SURFACE_STYLE_USAGE(.BOTH.,#153);
#153=SURFACE_SIDE_STYLE('',(#154));
#154=SURFACE_STYLE_FILL_AREA(#155);
#155=FILL_AREA_STYLE('',(#156));
#156=FILL_AREA_STYLE_COLOUR('',#158);
#157=CURVE_STYLE('',#159,POSITIVE_LENGTH_MEASURE(0.1),#158);
#158=COLOUR_RGB('Pin1Wrap',0.98,0.706,0.176);
#159=DRAUGHTING_PRE_DEFINED_CURVE_FONT('continuous');
#160=PRESENTATION_STYLE_ASSIGNMENT((#161,#166));
#161=SURFACE_STYLE_USAGE(.BOTH.,#162);
#162=SURFACE_SIDE_STYLE('',(#163));
#163=SURFACE_STYLE_FILL_AREA(#164);
#164=FILL_AREA_STYLE('',(#165));
#165=FILL_AREA_STYLE_COLOUR('',#167);
#166=CURVE_STYLE('',#168,POSITIVE_LENGTH_MEASURE(0.1),#167);
#167=COLOUR_RGB('Pin1Rad',0.588,0.588,0.588);
#168=DRAUGHTING_PRE_DEFINED_CURVE_FONT('continuous');
#169=PRESENTATION_STYLE_ASSIGNMENT((#170,#175));
#170=SURFACE_STYLE_USAGE(.BOTH.,#171);
#171=SURFACE_SIDE_STYLE('',(#172));
#172=SURFACE_STYLE_FILL_AREA(#173);
#173=FILL_AREA_STYLE('',(#174));
#174=FILL_AREA_STYLE_COLOUR('',#176);
#175=CURVE_STYLE('',#177,POSITIVE_LENGTH_MEASURE(0.1),#176);
#176=COLOUR_RGB('Pin1Axial',0.98,0.706,0.176);
#177=DRAUGHTING_PRE_DEFINED_CURVE_FONT('continuous');
#178=PRESENTATION_STYLE_ASSIGNMENT((#179,#184));
#179=SURFACE_STYLE_USAGE(.BOTH.,#180);
#180=SURFACE_SIDE_STYLE('',(#181));
#181=SURFACE_STYLE_FILL_AREA(#182);
#182=FILL_AREA_STYLE('',(#183));
#183=FILL_AREA_STYLE_COLOUR('',#185);
#184=CURVE_STYLE('',#186,POSITIVE_LENGTH_MEASURE(0.1),#185);
#185=COLOUR_RGB('Pin1Tant',0.459,0.345,0.176);
#186=DRAUGHTING_PRE_DEFINED_CURVE_FONT('continuous');
#187=PRESENTATION_STYLE_ASSIGNMENT((#188,#193));
#188=SURFACE_STYLE_USAGE(.BOTH.,#189);
#189=SURFACE_SIDE_STYLE('',(#190));
#190=SURFACE_STYLE_FILL_AREA(#191);
#191=FILL_AREA_STYLE('',(#192));
#192=FILL_AREA_STYLE_COLOUR('',#194);
#193=CURVE_STYLE('',#195,POSITIVE_LENGTH_MEASURE(0.1),#194);
#194=COLOUR_RGB('Shroud',0.235,0.235,0.235);
#195=DRAUGHTING_PRE_DEFINED_CURVE_FONT('continuous');
#197=MANIFOLD_SOLID_BREP($,#198);
#198=CLOSED_SHELL('',(#199,#200,#201));
#199=ADVANCED_FACE($,(#205,#204),#222,.T.);
#200=ADVANCED_FACE($,(#206),#202,.F.);
#201=ADVANCED_FACE($,(#207),#203,.T.);
#202=PLANE($,#227);
#203=PLANE($,#228);
#204=FACE_BOUND($,#209,.T.);
#205=FACE_OUTER_BOUND($,#208,.T.);
#206=FACE_OUTER_BOUND($,#210,.T.);
#207=FACE_OUTER_BOUND($,#211,.T.);
#208=EDGE_LOOP($,(#218));
#209=EDGE_LOOP($,(#219));
#210=EDGE_LOOP($,(#220));
#211=EDGE_LOOP($,(#221));
#212=CIRCLE($,#225,0.254);
#213=CIRCLE($,#226,0.254);
#214=VERTEX_POINT('',#243);
#215=VERTEX_POINT('',#245);
#216=EDGE_CURVE($,#214,#214,#212,.T.);
#217=EDGE_CURVE($,#215,#215,#213,.T.);
#218=ORIENTED_EDGE($,*,*,#216,.F.);
#219=ORIENTED_EDGE($,*,*,#217,.F.);
#220=ORIENTED_EDGE($,*,*,#217,.T.);
#221=ORIENTED_EDGE($,*,*,#216,.T.);
#222=CYLINDRICAL_SURFACE($,#224,0.254);
#223=AXIS2_PLACEMENT_3D('placement',#241,#229,#230);
#224=AXIS2_PLACEMENT_3D($,#242,#231,#232);
#225=AXIS2_PLACEMENT_3D($,#244,#233,#234);
#226=AXIS2_PLACEMENT_3D($,#246,#235,#236);
#227=AXIS2_PLACEMENT_3D($,#247,#237,#238);
#228=AXIS2_PLACEMENT_3D($,#248,#239,#240);
#229=DIRECTION('axis',(0.,1.,0.));
#230=DIRECTION('refdir',(1.,0.,0.));
#231=DIRECTION('',(0.,0.,1.));
#232=DIRECTION('',(1.,0.,0.));
#233=DIRECTION('',(0.,0.,1.));
#234=DIRECTION('',(1.,0.,0.));
#235=DIRECTION('',(0.,0.,-1.));
#236=DIRECTION('',(1.,0.,0.));
#237=DIRECTION('',(0.,0.,1.));
#238=DIRECTION('',(0.,1.,0.));
#239=DIRECTION('',(0.,0.,1.));
#240=DIRECTION('',(0.,1.,0.));
#241=CARTESIAN_POINT('',(0.,0.,0.));
#242=CARTESIAN_POINT('',(0.0,1.35,-4.572));
#243=CARTESIAN_POINT('',(-0.254,1.35,0.0));
#244=CARTESIAN_POINT('',(0.0,1.35,0.0));
#245=CARTESIAN_POINT('',(-0.254,1.35,-4.572));
#246=CARTESIAN_POINT('',(0.0,1.35,-4.572));
#247=CARTESIAN_POINT('',(0.0,1.35,-4.572));
#248=CARTESIAN_POINT('',(0.0,1.35,0.0));
#249=STYLED_ITEM('color',(#34),#199);
#250=STYLED_ITEM('color',(#34),#200);
#251=STYLED_ITEM('color',(#34),#201);
#252=MANIFOLD_SOLID_BREP($,#253);
#253=CLOSED_SHELL('',(#254,#255,#256));
#254=ADVANCED_FACE($,(#260,#259),#277,.T.);
#255=ADVANCED_FACE($,(#261),#257,.F.);
#256=ADVANCED_FACE($,(#262),#258,.T.);
#257=PLANE($,#282);
#258=PLANE($,#283);
#259=FACE_BOUND($,#264,.T.);
#260=FACE_OUTER_BOUND($,#263,.T.);
#261=FACE_OUTER_BOUND($,#265,.T.);
#262=FACE_OUTER_BOUND($,#266,.T.);
#263=EDGE_LOOP($,(#273));
#264=EDGE_LOOP($,(#274));
#265=EDGE_LOOP($,(#275));
#266=EDGE_LOOP($,(#276));
#267=CIRCLE($,#280,0.254);
#268=CIRCLE($,#281,0.254);
#269=VERTEX_POINT('',#298);
#270=VERTEX_POINT('',#300);
#271=EDGE_CURVE($,#269,#269,#267,.T.);
#272=EDGE_CURVE($,#270,#270,#268,.T.);
#273=ORIENTED_EDGE($,*,*,#271,.F.);
#274=ORIENTED_EDGE($,*,*,#272,.F.);
#275=ORIENTED_EDGE($,*,*,#272,.T.);
#276=ORIENTED_EDGE($,*,*,#271,.T.);
#277=CYLINDRICAL_SURFACE($,#279,0.254);
#278=AXIS2_PLACEMENT_3D('placement',#296,#284,#285);
#279=AXIS2_PLACEMENT_3D($,#297,#286,#287);
#280=AXIS2_PLACEMENT_3D($,#299,#288,#289);
#281=AXIS2_PLACEMENT_3D($,#301,#290,#291);
#282=AXIS2_PLACEMENT_3D($,#302,#292,#293);
#283=AXIS2_PLACEMENT_3D($,#303,#294,#295);
#284=DIRECTION('axis',(0.,1.,0.));
#285=DIRECTION('refdir',(1.,0.,0.));
#286=DIRECTION('',(0.,0.,1.));
#287=DIRECTION('',(1.,0.,0.));
#288=DIRECTION('',(0.,0.,1.));
#289=DIRECTION('',(1.,0.,0.));
#290=DIRECTION('',(0.,0.,-1.));
#291=DIRECTION('',(1.,0.,0.));
#292=DIRECTION('',(0.,0.,1.));
#293=DIRECTION('',(0.,1.,0.));
#294=DIRECTION('',(0.,0.,1.));
#295=DIRECTION('',(0.,1.,0.));
#296=CARTESIAN_POINT('',(0.,0.,0.));
#297=CARTESIAN_POINT('',(2.5,1.35,-4.572));
#298=CARTESIAN_POINT('',(2.246,1.35,0.0));
#299=CARTESIAN_POINT('',(2.5,1.35,0.0));
#300=CARTESIAN_POINT('',(2.246,1.35,-4.572));
#301=CARTESIAN_POINT('',(2.5,1.35,-4.572));
#302=CARTESIAN_POINT('',(2.5,1.35,-4.572));
#303=CARTESIAN_POINT('',(2.5,1.35,0.0));
#304=STYLED_ITEM('color',(#34),#254);
#305=STYLED_ITEM('color',(#34),#255);
#306=STYLED_ITEM('color',(#34),#256);
#307=MANIFOLD_SOLID_BREP($,#308);
#308=CLOSED_SHELL('',(#309,#310,#311));
#309=ADVANCED_FACE($,(#315,#314),#332,.T.);
#310=ADVANCED_FACE($,(#316),#312,.F.);
#311=ADVANCED_FACE($,(#317),#313,.T.);
#312=PLANE($,#337);
#313=PLANE($,#338);
#314=FACE_BOUND($,#319,.T.);
#315=FACE_OUTER_BOUND($,#318,.T.);
#316=FACE_OUTER_BOUND($,#320,.T.);
#317=FACE_OUTER_BOUND($,#321,.T.);
#318=EDGE_LOOP($,(#328));
#319=EDGE_LOOP($,(#329));
#320=EDGE_LOOP($,(#330));
#321=EDGE_LOOP($,(#331));
#322=CIRCLE($,#335,0.254);
#323=CIRCLE($,#336,0.254);
#324=VERTEX_POINT('',#353);
#325=VERTEX_POINT('',#355);
#326=EDGE_CURVE($,#324,#324,#322,.T.);
#327=EDGE_CURVE($,#325,#325,#323,.T.);
#328=ORIENTED_EDGE($,*,*,#326,.F.);
#329=ORIENTED_EDGE($,*,*,#327,.F.);
#330=ORIENTED_EDGE($,*,*,#327,.T.);
#331=ORIENTED_EDGE($,*,*,#326,.T.);
#332=CYLINDRICAL_SURFACE($,#334,0.254);
#333=AXIS2_PLACEMENT_3D('placement',#351,#339,#340);
#334=AXIS2_PLACEMENT_3D($,#352,#341,#342);
#335=AXIS2_PLACEMENT_3D($,#354,#343,#344);
#336=AXIS2_PLACEMENT_3D($,#356,#345,#346);
#337=AXIS2_PLACEMENT_3D($,#357,#347,#348);
#338=AXIS2_PLACEMENT_3D($,#358,#349,#350);
#339=DIRECTION('axis',(0.,1.,0.));
#340=DIRECTION('refdir',(1.,0.,0.));
#341=DIRECTION('',(0.,0.,1.));
#342=DIRECTION('',(1.,0.,0.));
#343=DIRECTION('',(0.,0.,1.));
#344=DIRECTION('',(1.,0.,0.));
#345=DIRECTION('',(0.,0.,-1.));
#346=DIRECTION('',(1.,0.,0.));
#347=DIRECTION('',(0.,0.,1.));
#348=DIRECTION('',(0.,1.,0.));
#349=DIRECTION('',(0.,0.,1.));
#350=DIRECTION('',(0.,1.,0.));
#351=CARTESIAN_POINT('',(0.,0.,0.));
#352=CARTESIAN_POINT('',(5.0,1.35,-4.572));
#353=CARTESIAN_POINT('',(4.746,1.35,0.0));
#354=CARTESIAN_POINT('',(5.0,1.35,0.0));
#355=CARTESIAN_POINT('',(4.746,1.35,-4.572));
#356=CARTESIAN_POINT('',(5.0,1.35,-4.572));
#357=CARTESIAN_POINT('',(5.0,1.35,-4.572));
#358=CARTESIAN_POINT('',(5.0,1.35,0.0));
#359=STYLED_ITEM('color',(#34),#309);
#360=STYLED_ITEM('color',(#34),#310);
#361=STYLED_ITEM('color',(#34),#311);
#362=MANIFOLD_SOLID_BREP($,#363);
#363=CLOSED_SHELL('',(#364,#365,#366));
#364=ADVANCED_FACE($,(#370,#369),#387,.T.);
#365=ADVANCED_FACE($,(#371),#367,.F.);
#366=ADVANCED_FACE($,(#372),#368,.T.);
#367=PLANE($,#392);
#368=PLANE($,#393);
#369=FACE_BOUND($,#374,.T.);
#370=FACE_OUTER_BOUND($,#373,.T.);
#371=FACE_OUTER_BOUND($,#375,.T.);
#372=FACE_OUTER_BOUND($,#376,.T.);
#373=EDGE_LOOP($,(#383));
#374=EDGE_LOOP($,(#384));
#375=EDGE_LOOP($,(#385));
#376=EDGE_LOOP($,(#386));
#377=CIRCLE($,#390,0.254);
#378=CIRCLE($,#391,0.254);
#379=VERTEX_POINT('',#408);
#380=VERTEX_POINT('',#410);
#381=EDGE_CURVE($,#379,#379,#377,.T.);
#382=EDGE_CURVE($,#380,#380,#378,.T.);
#383=ORIENTED_EDGE($,*,*,#381,.F.);
#384=ORIENTED_EDGE($,*,*,#382,.F.);
#385=ORIENTED_EDGE($,*,*,#382,.T.);
#386=ORIENTED_EDGE($,*,*,#381,.T.);
#387=CYLINDRICAL_SURFACE($,#389,0.254);
#388=AXIS2_PLACEMENT_3D('placement',#406,#394,#395);
#389=AXIS2_PLACEMENT_3D($,#407,#396,#397);
#390=AXIS2_PLACEMENT_3D($,#409,#398,#399);
#391=AXIS2_PLACEMENT_3D($,#411,#400,#401);
#392=AXIS2_PLACEMENT_3D($,#412,#402,#403);
#393=AXIS2_PLACEMENT_3D($,#413,#404,#405);
#394=DIRECTION('axis',(0.,1.,0.));
#395=DIRECTION('refdir',(1.,0.,0.));
#396=DIRECTION('',(0.,0.,1.));
#397=DIRECTION('',(1.,0.,0.));
#398=DIRECTION('',(0.,0.,1.));
#399=DIRECTION('',(1.,0.,0.));
#400=DIRECTION('',(0.,0.,-1.));
#401=DIRECTION('',(1.,0.,0.));
#402=DIRECTION('',(0.,0.,1.));
#403=DIRECTION('',(0.,1.,0.));
#404=DIRECTION('',(0.,0.,1.));
#405=DIRECTION('',(0.,1.,0.));
#406=CARTESIAN_POINT('',(0.,0.,0.));
#407=CARTESIAN_POINT('',(10.0,1.35,-4.572));
#408=CARTESIAN_POINT('',(9.746,1.35,0.0));
#409=CARTESIAN_POINT('',(10.0,1.35,0.0));
#410=CARTESIAN_POINT('',(9.746,1.35,-4.572));
#411=CARTESIAN_POINT('',(10.0,1.35,-4.572));
#412=CARTESIAN_POINT('',(10.0,1.35,-4.572));
#413=CARTESIAN_POINT('',(10.0,1.35,0.0));
#414=STYLED_ITEM('color',(#34),#364);
#415=STYLED_ITEM('color',(#34),#365);
#416=STYLED_ITEM('color',(#34),#366);
#417=MANIFOLD_SOLID_BREP($,#418);
#418=CLOSED_SHELL('',(#419,#420,#421));
#419=ADVANCED_FACE($,(#425,#424),#442,.T.);
#420=ADVANCED_FACE($,(#426),#422,.F.);
#421=ADVANCED_FACE($,(#427),#423,.T.);
#422=PLANE($,#447);
#423=PLANE($,#448);
#424=FACE_BOUND($,#429,.T.);
#425=FACE_OUTER_BOUND($,#428,.T.);
#426=FACE_OUTER_BOUND($,#430,.T.);
#427=FACE_OUTER_BOUND($,#431,.T.);
#428=EDGE_LOOP($,(#438));
#429=EDGE_LOOP($,(#439));
#430=EDGE_LOOP($,(#440));
#431=EDGE_LOOP($,(#441));
#432=CIRCLE($,#445,0.254);
#433=CIRCLE($,#446,0.254);
#434=VERTEX_POINT('',#463);
#435=VERTEX_POINT('',#465);
#436=EDGE_CURVE($,#434,#434,#432,.T.);
#437=EDGE_CURVE($,#435,#435,#433,.T.);
#438=ORIENTED_EDGE($,*,*,#436,.F.);
#439=ORIENTED_EDGE($,*,*,#437,.F.);
#440=ORIENTED_EDGE($,*,*,#437,.T.);
#441=ORIENTED_EDGE($,*,*,#436,.T.);
#442=CYLINDRICAL_SURFACE($,#444,0.254);
#443=AXIS2_PLACEMENT_3D('placement',#461,#449,#450);
#444=AXIS2_PLACEMENT_3D($,#462,#451,#452);
#445=AXIS2_PLACEMENT_3D($,#464,#453,#454);
#446=AXIS2_PLACEMENT_3D($,#466,#455,#456);
#447=AXIS2_PLACEMENT_3D($,#467,#457,#458);
#448=AXIS2_PLACEMENT_3D($,#468,#459,#460);
#449=DIRECTION('axis',(0.,1.,0.));
#450=DIRECTION('refdir',(1.,0.,0.));
#451=DIRECTION('',(0.,0.,1.));
#452=DIRECTION('',(1.,0.,0.));
#453=DIRECTION('',(0.,0.,1.));
#454=DIRECTION('',(1.,0.,0.));
#455=DIRECTION('',(0.,0.,-1.));
#456=DIRECTION('',(1.,0.,0.));
#457=DIRECTION('',(0.,0.,1.));
#458=DIRECTION('',(0.,1.,0.));
#459=DIRECTION('',(0.,0.,1.));
#460=DIRECTION('',(0.,1.,0.));
#461=CARTESIAN_POINT('',(0.,0.,0.));
#462=CARTESIAN_POINT('',(12.5,1.35,-4.572));
#463=CARTESIAN_POINT('',(12.246,1.35,0.0));
#464=CARTESIAN_POINT('',(12.5,1.35,0.0));
#465=CARTESIAN_POINT('',(12.246,1.35,-4.572));
#466=CARTESIAN_POINT('',(12.5,1.35,-4.572));
#467=CARTESIAN_POINT('',(12.5,1.35,-4.572));
#468=CARTESIAN_POINT('',(12.5,1.35,0.0));
#469=STYLED_ITEM('color',(#34),#419);
#470=STYLED_ITEM('color',(#34),#420);
#471=STYLED_ITEM('color',(#34),#421);
#472=MANIFOLD_SOLID_BREP($,#473);
#473=CLOSED_SHELL('',(#474,#475,#476));
#474=ADVANCED_FACE($,(#480,#479),#497,.T.);
#475=ADVANCED_FACE($,(#481),#477,.F.);
#476=ADVANCED_FACE($,(#482),#478,.T.);
#477=PLANE($,#502);
#478=PLANE($,#503);
#479=FACE_BOUND($,#484,.T.);
#480=FACE_OUTER_BOUND($,#483,.T.);
#481=FACE_OUTER_BOUND($,#485,.T.);
#482=FACE_OUTER_BOUND($,#486,.T.);
#483=EDGE_LOOP($,(#493));
#484=EDGE_LOOP($,(#494));
#485=EDGE_LOOP($,(#495));
#486=EDGE_LOOP($,(#496));
#487=CIRCLE($,#500,0.254);
#488=CIRCLE($,#501,0.254);
#489=VERTEX_POINT('',#518);
#490=VERTEX_POINT('',#520);
#491=EDGE_CURVE($,#489,#489,#487,.T.);
#492=EDGE_CURVE($,#490,#490,#488,.T.);
#493=ORIENTED_EDGE($,*,*,#491,.F.);
#494=ORIENTED_EDGE($,*,*,#492,.F.);
#495=ORIENTED_EDGE($,*,*,#492,.T.);
#496=ORIENTED_EDGE($,*,*,#491,.T.);
#497=CYLINDRICAL_SURFACE($,#499,0.254);
#498=AXIS2_PLACEMENT_3D('placement',#516,#504,#505);
#499=AXIS2_PLACEMENT_3D($,#517,#506,#507);
#500=AXIS2_PLACEMENT_3D($,#519,#508,#509);
#501=AXIS2_PLACEMENT_3D($,#521,#510,#511);
#502=AXIS2_PLACEMENT_3D($,#522,#512,#513);
#503=AXIS2_PLACEMENT_3D($,#523,#514,#515);
#504=DIRECTION('axis',(0.,1.,0.));
#505=DIRECTION('refdir',(1.,0.,0.));
#506=DIRECTION('',(0.,0.,1.));
#507=DIRECTION('',(1.,0.,0.));
#508=DIRECTION('',(0.,0.,1.));
#509=DIRECTION('',(1.,0.,0.));
#510=DIRECTION('',(0.,0.,-1.));
#511=DIRECTION('',(1.,0.,0.));
#512=DIRECTION('',(0.,0.,1.));
#513=DIRECTION('',(0.,1.,0.));
#514=DIRECTION('',(0.,0.,1.));
#515=DIRECTION('',(0.,1.,0.));
#516=CARTESIAN_POINT('',(0.,0.,0.));
#517=CARTESIAN_POINT('',(15.0,1.35,-4.572));
#518=CARTESIAN_POINT('',(14.746,1.35,0.0));
#519=CARTESIAN_POINT('',(15.0,1.35,0.0));
#520=CARTESIAN_POINT('',(14.746,1.35,-4.572));
#521=CARTESIAN_POINT('',(15.0,1.35,-4.572));
#522=CARTESIAN_POINT('',(15.0,1.35,-4.572));
#523=CARTESIAN_POINT('',(15.0,1.35,0.0));
#524=STYLED_ITEM('color',(#34),#474);
#525=STYLED_ITEM('color',(#34),#475);
#526=STYLED_ITEM('color',(#34),#476);
#527=MANIFOLD_SOLID_BREP($,#528);
#528=CLOSED_SHELL('',(#529,#530,#531));
#529=ADVANCED_FACE($,(#535,#534),#552,.T.);
#530=ADVANCED_FACE($,(#536),#532,.F.);
#531=ADVANCED_FACE($,(#537),#533,.T.);
#532=PLANE($,#557);
#533=PLANE($,#558);
#534=FACE_BOUND($,#539,.T.);
#535=FACE_OUTER_BOUND($,#538,.T.);
#536=FACE_OUTER_BOUND($,#540,.T.);
#537=FACE_OUTER_BOUND($,#541,.T.);
#538=EDGE_LOOP($,(#548));
#539=EDGE_LOOP($,(#549));
#540=EDGE_LOOP($,(#550));
#541=EDGE_LOOP($,(#551));
#542=CIRCLE($,#555,0.254);
#543=CIRCLE($,#556,0.254);
#544=VERTEX_POINT('',#573);
#545=VERTEX_POINT('',#575);
#546=EDGE_CURVE($,#544,#544,#542,.T.);
#547=EDGE_CURVE($,#545,#545,#543,.T.);
#548=ORIENTED_EDGE($,*,*,#546,.F.);
#549=ORIENTED_EDGE($,*,*,#547,.F.);
#550=ORIENTED_EDGE($,*,*,#547,.T.);
#551=ORIENTED_EDGE($,*,*,#546,.T.);
#552=CYLINDRICAL_SURFACE($,#554,0.254);
#553=AXIS2_PLACEMENT_3D('placement',#571,#559,#560);
#554=AXIS2_PLACEMENT_3D($,#572,#561,#562);
#555=AXIS2_PLACEMENT_3D($,#574,#563,#564);
#556=AXIS2_PLACEMENT_3D($,#576,#565,#566);
#557=AXIS2_PLACEMENT_3D($,#577,#567,#568);
#558=AXIS2_PLACEMENT_3D($,#578,#569,#570);
#559=DIRECTION('axis',(0.,1.,0.));
#560=DIRECTION('refdir',(1.,0.,0.));
#561=DIRECTION('',(0.,0.,1.));
#562=DIRECTION('',(1.,0.,0.));
#563=DIRECTION('',(0.,0.,1.));
#564=DIRECTION('',(1.,0.,0.));
#565=DIRECTION('',(0.,0.,-1.));
#566=DIRECTION('',(1.,0.,0.));
#567=DIRECTION('',(0.,0.,1.));
#568=DIRECTION('',(0.,1.,0.));
#569=DIRECTION('',(0.,0.,1.));
#570=DIRECTION('',(0.,1.,0.));
#571=CARTESIAN_POINT('',(0.,0.,0.));
#572=CARTESIAN_POINT('',(17.5,1.35,-4.572));
#573=CARTESIAN_POINT('',(17.246,1.35,0.0));
#574=CARTESIAN_POINT('',(17.5,1.35,0.0));
#575=CARTESIAN_POINT('',(17.246,1.35,-4.572));
#576=CARTESIAN_POINT('',(17.5,1.35,-4.572));
#577=CARTESIAN_POINT('',(17.5,1.35,-4.572));
#578=CARTESIAN_POINT('',(17.5,1.35,0.0));
#579=STYLED_ITEM('color',(#34),#529);
#580=STYLED_ITEM('color',(#34),#530);
#581=STYLED_ITEM('color',(#34),#531);
#583=MANIFOLD_SOLID_BREP($,#584);
#584=CLOSED_SHELL('',(#586,#635,#684,#733,#782,#831));
#585=STYLED_ITEM('',(#43),#586);
#586=ADVANCED_FACE('',(#592),#587,.T.);
#587=PLANE('',#588);
#588=AXIS2_PLACEMENT_3D('',#589,#590,#591);
#589=CARTESIAN_POINT('',(-2.401,-4.851,0.0));
#590=DIRECTION('',(0.0,-1.0,0.0));
#591=DIRECTION('',(0.,0.,1.));
#592=FACE_OUTER_BOUND('',#593,.T.);
#593=EDGE_LOOP('',(#594,#604,#614,#624));
#597=CARTESIAN_POINT('',(19.901,-4.851,0.0));
#596=VERTEX_POINT('',#597);
#599=CARTESIAN_POINT('',(-2.401,-4.851,0.0));
#598=VERTEX_POINT('',#599);
#595=EDGE_CURVE('',#596,#598,#600,.T.);
#600=LINE('',#597,#602);
#602=VECTOR('',#603,22.3012);
#603=DIRECTION('',(-1.0,0.0,0.0));
#594=ORIENTED_EDGE('',*,*,#595,.F.);
#607=CARTESIAN_POINT('',(19.901,-4.851,11.608));
#606=VERTEX_POINT('',#607);
#605=EDGE_CURVE('',#606,#596,#610,.T.);
#610=LINE('',#607,#612);
#612=VECTOR('',#613,11.6078);
#613=DIRECTION('',(0.0,0.0,-1.0));
#604=ORIENTED_EDGE('',*,*,#605,.F.);
#617=CARTESIAN_POINT('',(-2.401,-4.851,11.608));
#616=VERTEX_POINT('',#617);
#615=EDGE_CURVE('',#616,#606,#620,.T.);
#620=LINE('',#617,#622);
#622=VECTOR('',#623,22.3012);
#623=DIRECTION('',(1.0,0.0,0.0));
#614=ORIENTED_EDGE('',*,*,#615,.F.);
#625=EDGE_CURVE('',#598,#616,#630,.T.);
#630=LINE('',#599,#632);
#632=VECTOR('',#633,11.6078);
#633=DIRECTION('',(0.0,0.0,1.0));
#624=ORIENTED_EDGE('',*,*,#625,.F.);
#634=STYLED_ITEM('',(#43),#635);
#635=ADVANCED_FACE('',(#641),#636,.T.);
#636=PLANE('',#637);
#637=AXIS2_PLACEMENT_3D('',#638,#639,#640);
#638=CARTESIAN_POINT('',(19.901,-4.851,0.0));
#639=DIRECTION('',(1.0,0.0,0.0));
#640=DIRECTION('',(0.,0.,1.));
#641=FACE_OUTER_BOUND('',#642,.T.);
#642=EDGE_LOOP('',(#643,#653,#663,#673));
#646=CARTESIAN_POINT('',(19.901,4.851,0.0));
#645=VERTEX_POINT('',#646);
#644=EDGE_CURVE('',#645,#596,#649,.T.);
#649=LINE('',#646,#651);
#651=VECTOR('',#652,9.7028);
#652=DIRECTION('',(0.0,-1.0,0.0));
#643=ORIENTED_EDGE('',*,*,#644,.F.);
#656=CARTESIAN_POINT('',(19.901,4.851,11.608));
#655=VERTEX_POINT('',#656);
#654=EDGE_CURVE('',#655,#645,#659,.T.);
#659=LINE('',#656,#661);
#661=VECTOR('',#662,11.6078);
#662=DIRECTION('',(0.0,0.0,-1.0));
#653=ORIENTED_EDGE('',*,*,#654,.F.);
#664=EDGE_CURVE('',#606,#655,#669,.T.);
#669=LINE('',#607,#671);
#671=VECTOR('',#672,9.7028);
#672=DIRECTION('',(0.0,1.0,0.0));
#663=ORIENTED_EDGE('',*,*,#664,.F.);
#673=ORIENTED_EDGE('',*,*,#605,.T.);
#683=STYLED_ITEM('',(#43),#684);
#684=ADVANCED_FACE('',(#690),#685,.T.);
#685=PLANE('',#686);
#686=AXIS2_PLACEMENT_3D('',#687,#688,#689);
#687=CARTESIAN_POINT('',(19.901,4.851,0.0));
#688=DIRECTION('',(0.0,1.0,0.0));
#689=DIRECTION('',(0.,0.,1.));
#690=FACE_OUTER_BOUND('',#691,.T.);
#691=EDGE_LOOP('',(#692,#702,#712,#722));
#695=CARTESIAN_POINT('',(-2.401,4.851,0.0));
#694=VERTEX_POINT('',#695);
#693=EDGE_CURVE('',#694,#645,#698,.T.);
#698=LINE('',#695,#700);
#700=VECTOR('',#701,22.3012);
#701=DIRECTION('',(1.0,0.0,0.0));
#692=ORIENTED_EDGE('',*,*,#693,.F.);
#705=CARTESIAN_POINT('',(-2.401,4.851,11.608));
#704=VERTEX_POINT('',#705);
#703=EDGE_CURVE('',#704,#694,#708,.T.);
#708=LINE('',#705,#710);
#710=VECTOR('',#711,11.6078);
#711=DIRECTION('',(0.0,0.0,-1.0));
#702=ORIENTED_EDGE('',*,*,#703,.F.);
#713=EDGE_CURVE('',#655,#704,#718,.T.);
#718=LINE('',#656,#720);
#720=VECTOR('',#721,22.3012);
#721=DIRECTION('',(-1.0,0.0,0.0));
#712=ORIENTED_EDGE('',*,*,#713,.F.);
#722=ORIENTED_EDGE('',*,*,#654,.T.);
#732=STYLED_ITEM('',(#43),#733);
#733=ADVANCED_FACE('',(#739),#734,.T.);
#734=PLANE('',#735);
#735=AXIS2_PLACEMENT_3D('',#736,#737,#738);
#736=CARTESIAN_POINT('',(-2.401,4.851,0.0));
#737=DIRECTION('',(-1.0,0.0,0.0));
#738=DIRECTION('',(0.,0.,1.));
#739=FACE_OUTER_BOUND('',#740,.T.);
#740=EDGE_LOOP('',(#741,#751,#761,#771));
#742=EDGE_CURVE('',#598,#694,#747,.T.);
#747=LINE('',#599,#749);
#749=VECTOR('',#750,9.7028);
#750=DIRECTION('',(0.0,1.0,0.0));
#741=ORIENTED_EDGE('',*,*,#742,.F.);
#751=ORIENTED_EDGE('',*,*,#625,.T.);
#762=EDGE_CURVE('',#704,#616,#767,.T.);
#767=LINE('',#705,#769);
#769=VECTOR('',#770,9.7028);
#770=DIRECTION('',(0.0,-1.0,0.0));
#761=ORIENTED_EDGE('',*,*,#762,.F.);
#771=ORIENTED_EDGE('',*,*,#703,.T.);
#781=STYLED_ITEM('',(#43),#782);
#782=ADVANCED_FACE('',(#788),#783,.T.);
#783=PLANE('',#784);
#784=AXIS2_PLACEMENT_3D('',#785,#786,#787);
#785=CARTESIAN_POINT('',(-2.401,4.851,0.0));
#786=DIRECTION('',(0.0,0.0,-1.0));
#787=DIRECTION('',(0.,1.,0.));
#788=FACE_OUTER_BOUND('',#789,.T.);
#789=EDGE_LOOP('',(#790,#800,#810,#820));
#790=ORIENTED_EDGE('',*,*,#693,.T.);
#800=ORIENTED_EDGE('',*,*,#644,.T.);
#810=ORIENTED_EDGE('',*,*,#595,.T.);
#820=ORIENTED_EDGE('',*,*,#742,.T.);
#830=STYLED_ITEM('',(#43),#831);
#831=ADVANCED_FACE('',(#837),#832,.T.);
#832=PLANE('',#833);
#833=AXIS2_PLACEMENT_3D('',#834,#835,#836);
#834=CARTESIAN_POINT('',(-2.401,-4.851,11.608));
#835=DIRECTION('',(0.0,0.0,1.0));
#836=DIRECTION('',(0.,1.,0.));
#837=FACE_OUTER_BOUND('',#838,.T.);
#838=EDGE_LOOP('',(#839,#849,#859,#869));
#839=ORIENTED_EDGE('',*,*,#615,.T.);
#849=ORIENTED_EDGE('',*,*,#664,.T.);
#859=ORIENTED_EDGE('',*,*,#713,.T.);
#869=ORIENTED_EDGE('',*,*,#762,.T.);
ENDSEC;
END-ISO-10303-21;
