%TF.GenerationSoftware,KiCad,Pcbnew,9.0.4*%
%TF.CreationDate,2025-09-13T13:50:55-04:00*%
%TF.ProjectId,Onboarding,4f6e626f-6172-4646-996e-672e6b696361,rev?*%
%TF.SameCoordinates,Original*%
%TF.FileFunction,Legend,Top*%
%TF.FilePolarity,Positive*%
%FSLAX46Y46*%
G04 Gerber Fmt 4.6, Leading zero omitted, Abs format (unit mm)*
G04 Created by KiCad (PCBNEW 9.0.4) date 2025-09-13 13:50:55*
%MOMM*%
%LPD*%
G01*
G04 APERTURE LIST*
%ADD10C,0.100000*%
%ADD11C,0.120000*%
G04 APERTURE END LIST*
D10*
X136868333Y-49064895D02*
X136868333Y-49636323D01*
X136868333Y-49636323D02*
X136830238Y-49750609D01*
X136830238Y-49750609D02*
X136754047Y-49826800D01*
X136754047Y-49826800D02*
X136639762Y-49864895D01*
X136639762Y-49864895D02*
X136563571Y-49864895D01*
X137668333Y-49864895D02*
X137211190Y-49864895D01*
X137439762Y-49864895D02*
X137439762Y-49064895D01*
X137439762Y-49064895D02*
X137363571Y-49179180D01*
X137363571Y-49179180D02*
X137287381Y-49255371D01*
X137287381Y-49255371D02*
X137211190Y-49293466D01*
X134061571Y-56464895D02*
X133604428Y-56464895D01*
X133833000Y-56464895D02*
X133833000Y-55664895D01*
X133833000Y-55664895D02*
X133756809Y-55779180D01*
X133756809Y-55779180D02*
X133680619Y-55855371D01*
X133680619Y-55855371D02*
X133604428Y-55893466D01*
X136409524Y-42364895D02*
X136409524Y-41564895D01*
X136409524Y-41564895D02*
X136600000Y-41564895D01*
X136600000Y-41564895D02*
X136714286Y-41602990D01*
X136714286Y-41602990D02*
X136790476Y-41679180D01*
X136790476Y-41679180D02*
X136828571Y-41755371D01*
X136828571Y-41755371D02*
X136866667Y-41907752D01*
X136866667Y-41907752D02*
X136866667Y-42022038D01*
X136866667Y-42022038D02*
X136828571Y-42174419D01*
X136828571Y-42174419D02*
X136790476Y-42250609D01*
X136790476Y-42250609D02*
X136714286Y-42326800D01*
X136714286Y-42326800D02*
X136600000Y-42364895D01*
X136600000Y-42364895D02*
X136409524Y-42364895D01*
X137628571Y-42364895D02*
X137171428Y-42364895D01*
X137400000Y-42364895D02*
X137400000Y-41564895D01*
X137400000Y-41564895D02*
X137323809Y-41679180D01*
X137323809Y-41679180D02*
X137247619Y-41755371D01*
X137247619Y-41755371D02*
X137171428Y-41793466D01*
X144864895Y-46633332D02*
X144483942Y-46899999D01*
X144864895Y-47090475D02*
X144064895Y-47090475D01*
X144064895Y-47090475D02*
X144064895Y-46785713D01*
X144064895Y-46785713D02*
X144102990Y-46709523D01*
X144102990Y-46709523D02*
X144141085Y-46671428D01*
X144141085Y-46671428D02*
X144217276Y-46633332D01*
X144217276Y-46633332D02*
X144331561Y-46633332D01*
X144331561Y-46633332D02*
X144407752Y-46671428D01*
X144407752Y-46671428D02*
X144445847Y-46709523D01*
X144445847Y-46709523D02*
X144483942Y-46785713D01*
X144483942Y-46785713D02*
X144483942Y-47090475D01*
X144864895Y-45871428D02*
X144864895Y-46328571D01*
X144864895Y-46099999D02*
X144064895Y-46099999D01*
X144064895Y-46099999D02*
X144179180Y-46176190D01*
X144179180Y-46176190D02*
X144255371Y-46252380D01*
X144255371Y-46252380D02*
X144293466Y-46328571D01*
D11*
%TO.C,J1*%
X139802000Y-56929000D02*
X139802000Y-50198000D01*
X139802000Y-56040000D02*
X134214000Y-56040000D01*
X139802000Y-50198000D02*
X134214000Y-50198000D01*
X134214000Y-56929000D02*
X139802000Y-56929000D01*
X134214000Y-50198000D02*
X134214000Y-56929000D01*
%TO.C,D1*%
X138000000Y-42540000D02*
X135315000Y-42540000D01*
X135315000Y-42540000D02*
X135315000Y-44460000D01*
X135315000Y-44460000D02*
X138000000Y-44460000D01*
%TO.C,R1*%
X145290000Y-48677064D02*
X145290000Y-44322936D01*
X148710000Y-48677064D02*
X148710000Y-44322936D01*
%TD*%
M02*
