%TF.GenerationSoftware,KiCad,Pcbnew,9.0.4*%
%TF.CreationDate,2025-09-13T13:50:55-04:00*%
%TF.ProjectId,Onboarding,4f6e626f-6172-4646-996e-672e6b696361,rev?*%
%TF.SameCoordinates,Original*%
%TF.FileFunction,Copper,L2,Bot*%
%TF.FilePolarity,Positive*%
%FSLAX46Y46*%
G04 Gerber Fmt 4.6, Leading zero omitted, Abs format (unit mm)*
G04 Created by KiCad (PCBNEW 9.0.4) date 2025-09-13 13:50:55*
%MOMM*%
%LPD*%
G01*
G04 APERTURE LIST*
%TA.AperFunction,ComponentPad*%
%ADD10C,2.000000*%
%TD*%
%TA.AperFunction,ComponentPad*%
%ADD11R,2.000000X2.000000*%
%TD*%
%TA.AperFunction,ViaPad*%
%ADD12C,0.600000*%
%TD*%
G04 APERTURE END LIST*
D10*
%TO.P,J1,2,Pin_2*%
%TO.N,+3.3V*%
X138278000Y-53500000D03*
D11*
%TO.P,J1,1,Pin_1*%
%TO.N,GND*%
X135738000Y-53500000D03*
%TD*%
D12*
%TO.N,GND*%
X136000000Y-47500000D03*
%TD*%
%TA.AperFunction,Conductor*%
%TO.N,GND*%
G36*
X151442539Y-40520185D02*
G01*
X151488294Y-40572989D01*
X151499500Y-40624500D01*
X151499500Y-59375500D01*
X151479815Y-59442539D01*
X151427011Y-59488294D01*
X151375500Y-59499500D01*
X132624500Y-59499500D01*
X132557461Y-59479815D01*
X132511706Y-59427011D01*
X132500500Y-59375500D01*
X132500500Y-52452155D01*
X134238000Y-52452155D01*
X134238000Y-53250000D01*
X135247252Y-53250000D01*
X135225482Y-53287708D01*
X135188000Y-53427591D01*
X135188000Y-53572409D01*
X135225482Y-53712292D01*
X135247252Y-53750000D01*
X134238000Y-53750000D01*
X134238000Y-54547844D01*
X134244401Y-54607372D01*
X134244403Y-54607379D01*
X134294645Y-54742086D01*
X134294649Y-54742093D01*
X134380809Y-54857187D01*
X134380812Y-54857190D01*
X134495906Y-54943350D01*
X134495913Y-54943354D01*
X134630620Y-54993596D01*
X134630627Y-54993598D01*
X134690155Y-54999999D01*
X134690172Y-55000000D01*
X135488000Y-55000000D01*
X135488000Y-53990747D01*
X135525708Y-54012518D01*
X135665591Y-54050000D01*
X135810409Y-54050000D01*
X135950292Y-54012518D01*
X135988000Y-53990747D01*
X135988000Y-55000000D01*
X136785828Y-55000000D01*
X136785844Y-54999999D01*
X136845372Y-54993598D01*
X136845379Y-54993596D01*
X136980086Y-54943354D01*
X136980093Y-54943350D01*
X137095187Y-54857190D01*
X137095190Y-54857187D01*
X137181350Y-54742093D01*
X137185604Y-54734304D01*
X137188883Y-54736094D01*
X137220118Y-54694276D01*
X137285556Y-54669789D01*
X137353845Y-54684566D01*
X137367410Y-54693137D01*
X137491567Y-54783343D01*
X137590991Y-54834002D01*
X137702003Y-54890566D01*
X137702005Y-54890566D01*
X137702008Y-54890568D01*
X137822412Y-54929689D01*
X137926631Y-54963553D01*
X138159903Y-55000500D01*
X138159908Y-55000500D01*
X138396097Y-55000500D01*
X138629368Y-54963553D01*
X138853992Y-54890568D01*
X139064433Y-54783343D01*
X139255510Y-54644517D01*
X139422517Y-54477510D01*
X139561343Y-54286433D01*
X139668568Y-54075992D01*
X139741553Y-53851368D01*
X139757608Y-53750000D01*
X139778500Y-53618097D01*
X139778500Y-53381902D01*
X139741553Y-53148631D01*
X139668566Y-52924003D01*
X139561342Y-52713566D01*
X139422517Y-52522490D01*
X139255510Y-52355483D01*
X139064433Y-52216657D01*
X138853996Y-52109433D01*
X138629368Y-52036446D01*
X138396097Y-51999500D01*
X138396092Y-51999500D01*
X138159908Y-51999500D01*
X138159903Y-51999500D01*
X137926631Y-52036446D01*
X137702003Y-52109433D01*
X137491566Y-52216657D01*
X137367422Y-52306854D01*
X137301615Y-52330334D01*
X137233561Y-52314509D01*
X137185942Y-52265510D01*
X137185604Y-52265696D01*
X137184938Y-52264478D01*
X137184866Y-52264403D01*
X137184719Y-52264076D01*
X137181350Y-52257906D01*
X137095190Y-52142812D01*
X137095187Y-52142809D01*
X136980093Y-52056649D01*
X136980086Y-52056645D01*
X136845379Y-52006403D01*
X136845372Y-52006401D01*
X136785844Y-52000000D01*
X135988000Y-52000000D01*
X135988000Y-53009252D01*
X135950292Y-52987482D01*
X135810409Y-52950000D01*
X135665591Y-52950000D01*
X135525708Y-52987482D01*
X135488000Y-53009252D01*
X135488000Y-52000000D01*
X134690155Y-52000000D01*
X134630627Y-52006401D01*
X134630620Y-52006403D01*
X134495913Y-52056645D01*
X134495906Y-52056649D01*
X134380812Y-52142809D01*
X134380809Y-52142812D01*
X134294649Y-52257906D01*
X134294645Y-52257913D01*
X134244403Y-52392620D01*
X134244401Y-52392627D01*
X134238000Y-52452155D01*
X132500500Y-52452155D01*
X132500500Y-40624500D01*
X132520185Y-40557461D01*
X132572989Y-40511706D01*
X132624500Y-40500500D01*
X151375500Y-40500500D01*
X151442539Y-40520185D01*
G37*
%TD.AperFunction*%
%TD*%
M02*
